# xmcd
#
# Track frame offsets:
#	150
#	16359
#	38475
#	75451
#
# Disc length: 4440 seconds
#
# Revision: 2
# Processed by: cddbd v1.5.2PL0 Copyright (c) Steve Scherf et al.
# Submitted via: audiograbber 1.83.01
#
DISCID=1d115604
DTITLE=Donots - We're not gonna take it (single cd)
DYEAR=2002
DGENRE=Punk Rock
TTITLE0=We're not gonna take it
TTITLE1=Bad to the bone (live) (feat. Rock 'N' Rolf)
TTITLE2=We're not gonna take it (live)
TTITLE3=Data
EXTD=YEAR: 2002
EXTT0=
EXTT1=
EXTT2=
EXTT3=
PLAYORDER=
